<?xml version="1.0" encoding="UTF-8" standalone="no"?>
<!DOCTYPE svg PUBLIC "-//W3C//DTD SVG 1.1//EN"
 "http://www.w3.org/Graphics/SVG/1.1/DTD/svg11.dtd">
<!-- Generated by graphviz version 2.43.0 (0)
 -->
<!-- Title: snakemake_dag Pages: 1 -->
<svg width="1519pt" height="332pt"
 viewBox="0.00 0.00 1518.50 332.00" xmlns="http://www.w3.org/2000/svg" xmlns:xlink="http://www.w3.org/1999/xlink">
<g id="graph0" class="graph" transform="scale(1 1) rotate(0) translate(4 328)">
<title>snakemake_dag</title>
<polygon fill="white" stroke="transparent" points="-4,4 -4,-328 1514.5,-328 1514.5,4 -4,4"/>
<!-- 0 -->
<g id="node1" class="node">
<title>0</title>
<path fill="none" stroke="#d85656" stroke-width="2" stroke-dasharray="5,2" d="M887,-36C887,-36 857,-36 857,-36 851,-36 845,-30 845,-24 845,-24 845,-12 845,-12 845,-6 851,0 857,0 857,0 887,0 887,0 893,0 899,-6 899,-12 899,-12 899,-24 899,-24 899,-30 893,-36 887,-36"/>
<text text-anchor="middle" x="872" y="-15.5" font-family="sans" font-size="10.00">all</text>
</g>
<!-- 1 -->
<g id="node2" class="node">
<title>1</title>
<path fill="none" stroke="#97d856" stroke-width="2" stroke-dasharray="5,2" d="M344,-324C344,-324 12,-324 12,-324 6,-324 0,-318 0,-312 0,-312 0,-300 0,-300 0,-294 6,-288 12,-288 12,-288 344,-288 344,-288 350,-288 356,-294 356,-300 356,-300 356,-312 356,-312 356,-318 350,-324 344,-324"/>
<text text-anchor="middle" x="178" y="-309" font-family="sans" font-size="10.00">infoseq_stats</text>
<text text-anchor="middle" x="178" y="-298" font-family="sans" font-size="10.00">fname: out_high_DGF&#45;1_protein_coding_gene_TriTrypDB&#45;68_TcruziYC6</text>
</g>
<!-- 1&#45;&gt;0 -->
<g id="edge1" class="edge">
<title>1&#45;&gt;0</title>
<path fill="none" stroke="grey" stroke-width="2" d="M209.81,-287.97C288.02,-246.61 496.68,-139.32 680,-72 732.74,-52.63 795.88,-36.5 834.97,-27.3"/>
<polygon fill="grey" stroke="grey" stroke-width="2" points="835.9,-30.67 844.85,-25 834.31,-23.86 835.9,-30.67"/>
</g>
<!-- 5 -->
<g id="node6" class="node">
<title>5</title>
<path fill="none" stroke="#d89556" stroke-width="2" stroke-dasharray="5,2" d="M826,-252C826,-252 756,-252 756,-252 750,-252 744,-246 744,-240 744,-240 744,-228 744,-228 744,-222 750,-216 756,-216 756,-216 826,-216 826,-216 832,-216 838,-222 838,-228 838,-228 838,-240 838,-240 838,-246 832,-252 826,-252"/>
<text text-anchor="middle" x="791" y="-231.5" font-family="sans" font-size="10.00">combine_tables</text>
</g>
<!-- 1&#45;&gt;5 -->
<g id="edge12" class="edge">
<title>1&#45;&gt;5</title>
<path fill="none" stroke="grey" stroke-width="2" d="M327.17,-287.97C458.17,-273.01 641.78,-252.04 733.75,-241.54"/>
<polygon fill="grey" stroke="grey" stroke-width="2" points="734.16,-245.01 743.7,-240.4 733.37,-238.06 734.16,-245.01"/>
</g>
<!-- 2 -->
<g id="node3" class="node">
<title>2</title>
<path fill="none" stroke="#97d856" stroke-width="2" stroke-dasharray="5,2" d="M686.5,-324C686.5,-324 385.5,-324 385.5,-324 379.5,-324 373.5,-318 373.5,-312 373.5,-312 373.5,-300 373.5,-300 373.5,-294 379.5,-288 385.5,-288 385.5,-288 686.5,-288 686.5,-288 692.5,-288 698.5,-294 698.5,-300 698.5,-300 698.5,-312 698.5,-312 698.5,-318 692.5,-324 686.5,-324"/>
<text text-anchor="middle" x="536" y="-309" font-family="sans" font-size="10.00">infoseq_stats</text>
<text text-anchor="middle" x="536" y="-298" font-family="sans" font-size="10.00">fname: out_high_DGF&#45;1_polypeptide_TcDm25_TcruziTcDm25H1</text>
</g>
<!-- 2&#45;&gt;0 -->
<g id="edge2" class="edge">
<title>2&#45;&gt;0</title>
<path fill="none" stroke="grey" stroke-width="2" d="M545.33,-287.99C569.46,-245.5 638.16,-133.69 725,-72 758.28,-48.36 803.23,-34.2 834.63,-26.54"/>
<polygon fill="grey" stroke="grey" stroke-width="2" points="835.78,-29.87 844.72,-24.19 834.19,-23.05 835.78,-29.87"/>
</g>
<!-- 2&#45;&gt;5 -->
<g id="edge13" class="edge">
<title>2&#45;&gt;5</title>
<path fill="none" stroke="grey" stroke-width="2" d="M598.05,-287.97C639.59,-276.56 693.85,-261.67 734.24,-250.58"/>
<polygon fill="grey" stroke="grey" stroke-width="2" points="735.22,-253.94 743.94,-247.92 733.37,-247.19 735.22,-253.94"/>
</g>
<!-- 3 -->
<g id="node4" class="node">
<title>3</title>
<path fill="none" stroke="#97d856" stroke-width="2" stroke-dasharray="5,2" d="M1101.5,-324C1101.5,-324 728.5,-324 728.5,-324 722.5,-324 716.5,-318 716.5,-312 716.5,-312 716.5,-300 716.5,-300 716.5,-294 722.5,-288 728.5,-288 728.5,-288 1101.5,-288 1101.5,-288 1107.5,-288 1113.5,-294 1113.5,-300 1113.5,-300 1113.5,-312 1113.5,-312 1113.5,-318 1107.5,-324 1101.5,-324"/>
<text text-anchor="middle" x="915" y="-309" font-family="sans" font-size="10.00">infoseq_stats</text>
<text text-anchor="middle" x="915" y="-298" font-family="sans" font-size="10.00">fname: out_high_DGF&#45;1_protein_coding_gene_TriTrypDB&#45;68_TcruziDm28c2018</text>
</g>
<!-- 3&#45;&gt;0 -->
<g id="edge3" class="edge">
<title>3&#45;&gt;0</title>
<path fill="none" stroke="grey" stroke-width="2" d="M912.44,-287.97C905.26,-240.19 884.87,-104.62 876.1,-46.27"/>
<polygon fill="grey" stroke="grey" stroke-width="2" points="879.55,-45.67 874.6,-36.31 872.63,-46.72 879.55,-45.67"/>
</g>
<!-- 3&#45;&gt;5 -->
<g id="edge14" class="edge">
<title>3&#45;&gt;5</title>
<path fill="none" stroke="grey" stroke-width="2" d="M884.67,-287.88C868.3,-278.64 847.92,-267.13 830.35,-257.21"/>
<polygon fill="grey" stroke="grey" stroke-width="2" points="831.88,-254.06 821.45,-252.19 828.44,-260.15 831.88,-254.06"/>
</g>
<!-- 4 -->
<g id="node5" class="node">
<title>4</title>
<path fill="none" stroke="#97d856" stroke-width="2" stroke-dasharray="5,2" d="M1498.5,-324C1498.5,-324 1143.5,-324 1143.5,-324 1137.5,-324 1131.5,-318 1131.5,-312 1131.5,-312 1131.5,-300 1131.5,-300 1131.5,-294 1137.5,-288 1143.5,-288 1143.5,-288 1498.5,-288 1498.5,-288 1504.5,-288 1510.5,-294 1510.5,-300 1510.5,-300 1510.5,-312 1510.5,-312 1510.5,-318 1504.5,-324 1498.5,-324"/>
<text text-anchor="middle" x="1321" y="-309" font-family="sans" font-size="10.00">infoseq_stats</text>
<text text-anchor="middle" x="1321" y="-298" font-family="sans" font-size="10.00">fname: out_high_DGF&#45;1_protein_coding_gene_TriTrypDB&#45;68_TcruziBrazilA4</text>
</g>
<!-- 4&#45;&gt;0 -->
<g id="edge4" class="edge">
<title>4&#45;&gt;0</title>
<path fill="none" stroke="grey" stroke-width="2" d="M1316.23,-287.77C1303.06,-243.74 1261.83,-126.74 1182,-72 1138.22,-41.98 982.11,-26.99 909.56,-21.51"/>
<polygon fill="grey" stroke="grey" stroke-width="2" points="909.72,-18.01 899.49,-20.77 909.21,-25 909.72,-18.01"/>
</g>
<!-- 4&#45;&gt;5 -->
<g id="edge15" class="edge">
<title>4&#45;&gt;5</title>
<path fill="none" stroke="grey" stroke-width="2" d="M1192.03,-287.97C1082.28,-273.47 929.82,-253.33 848.12,-242.54"/>
<polygon fill="grey" stroke="grey" stroke-width="2" points="848.41,-239.05 838.04,-241.21 847.49,-245.99 848.41,-239.05"/>
</g>
<!-- 5&#45;&gt;0 -->
<g id="edge5" class="edge">
<title>5&#45;&gt;0</title>
<path fill="none" stroke="grey" stroke-width="2" d="M797.49,-215.85C811.56,-178.68 844.96,-90.44 861.85,-45.82"/>
<polygon fill="grey" stroke="grey" stroke-width="2" points="865.21,-46.82 865.48,-36.23 858.66,-44.35 865.21,-46.82"/>
</g>
<!-- 6 -->
<g id="node7" class="node">
<title>6</title>
<path fill="none" stroke="#56d89a" stroke-width="2" stroke-dasharray="5,2" d="M750.5,-180C750.5,-180 709.5,-180 709.5,-180 703.5,-180 697.5,-174 697.5,-168 697.5,-168 697.5,-156 697.5,-156 697.5,-150 703.5,-144 709.5,-144 709.5,-144 750.5,-144 750.5,-144 756.5,-144 762.5,-150 762.5,-156 762.5,-156 762.5,-168 762.5,-168 762.5,-174 756.5,-180 750.5,-180"/>
<text text-anchor="middle" x="730" y="-159.5" font-family="sans" font-size="10.00">plot_stats</text>
</g>
<!-- 5&#45;&gt;6 -->
<g id="edge16" class="edge">
<title>5&#45;&gt;6</title>
<path fill="none" stroke="grey" stroke-width="2" d="M775.92,-215.7C768.61,-207.3 759.69,-197.07 751.66,-187.86"/>
<polygon fill="grey" stroke="grey" stroke-width="2" points="754.11,-185.34 744.91,-180.1 748.84,-189.94 754.11,-185.34"/>
</g>
<!-- 11 -->
<g id="node12" class="node">
<title>11</title>
<path fill="none" stroke="#56d8d8" stroke-width="2" stroke-dasharray="5,2" d="M794,-108C794,-108 764,-108 764,-108 758,-108 752,-102 752,-96 752,-96 752,-84 752,-84 752,-78 758,-72 764,-72 764,-72 794,-72 794,-72 800,-72 806,-78 806,-84 806,-84 806,-96 806,-96 806,-102 800,-108 794,-108"/>
<text text-anchor="middle" x="779" y="-87.5" font-family="sans" font-size="10.00">report</text>
</g>
<!-- 5&#45;&gt;11 -->
<g id="edge19" class="edge">
<title>5&#45;&gt;11</title>
<path fill="none" stroke="grey" stroke-width="2" d="M789.55,-215.87C787.51,-191.67 783.75,-147.21 781.31,-118.39"/>
<polygon fill="grey" stroke="grey" stroke-width="2" points="784.78,-117.86 780.45,-108.19 777.81,-118.45 784.78,-117.86"/>
</g>
<!-- 6&#45;&gt;0 -->
<g id="edge6" class="edge">
<title>6&#45;&gt;0</title>
<path fill="none" stroke="grey" stroke-width="2" d="M727.8,-143.66C726.31,-124.16 726.95,-92.55 743,-72 765.2,-43.58 805.23,-30.29 834.83,-24.14"/>
<polygon fill="grey" stroke="grey" stroke-width="2" points="835.65,-27.55 844.82,-22.25 834.35,-20.67 835.65,-27.55"/>
</g>
<!-- 6&#45;&gt;11 -->
<g id="edge20" class="edge">
<title>6&#45;&gt;11</title>
<path fill="none" stroke="grey" stroke-width="2" d="M742.11,-143.7C747.87,-135.47 754.86,-125.48 761.21,-116.42"/>
<polygon fill="grey" stroke="grey" stroke-width="2" points="764.16,-118.3 767.03,-108.1 758.42,-114.29 764.16,-118.3"/>
</g>
<!-- 7 -->
<g id="node8" class="node">
<title>7</title>
<path fill="none" stroke="#d6d856" stroke-width="2" stroke-dasharray="5,2" d="M1013.5,-180C1013.5,-180 926.5,-180 926.5,-180 920.5,-180 914.5,-174 914.5,-168 914.5,-168 914.5,-156 914.5,-156 914.5,-150 920.5,-144 926.5,-144 926.5,-144 1013.5,-144 1013.5,-144 1019.5,-144 1025.5,-150 1025.5,-156 1025.5,-156 1025.5,-168 1025.5,-168 1025.5,-174 1019.5,-180 1013.5,-180"/>
<text text-anchor="middle" x="970" y="-165" font-family="sans" font-size="10.00">frequency_analysis</text>
<text text-anchor="middle" x="970" y="-154" font-family="sans" font-size="10.00">atype: dinucleotide</text>
</g>
<!-- 7&#45;&gt;0 -->
<g id="edge7" class="edge">
<title>7&#45;&gt;0</title>
<path fill="none" stroke="grey" stroke-width="2" d="M955.93,-143.63C947.83,-133.42 937.58,-120.17 929,-108 914.33,-87.18 898.81,-62.78 887.67,-44.79"/>
<polygon fill="grey" stroke="grey" stroke-width="2" points="890.5,-42.71 882.28,-36.02 884.54,-46.38 890.5,-42.71"/>
</g>
<!-- 9 -->
<g id="node10" class="node">
<title>9</title>
<path fill="none" stroke="#59d856" stroke-width="2" stroke-dasharray="5,2" d="M1015.5,-108C1015.5,-108 950.5,-108 950.5,-108 944.5,-108 938.5,-102 938.5,-96 938.5,-96 938.5,-84 938.5,-84 938.5,-78 944.5,-72 950.5,-72 950.5,-72 1015.5,-72 1015.5,-72 1021.5,-72 1027.5,-78 1027.5,-84 1027.5,-84 1027.5,-96 1027.5,-96 1027.5,-102 1021.5,-108 1015.5,-108"/>
<text text-anchor="middle" x="983" y="-87.5" font-family="sans" font-size="10.00">plot_frequency</text>
</g>
<!-- 7&#45;&gt;9 -->
<g id="edge17" class="edge">
<title>7&#45;&gt;9</title>
<path fill="none" stroke="grey" stroke-width="2" d="M973.21,-143.7C974.65,-135.98 976.37,-126.71 977.96,-118.11"/>
<polygon fill="grey" stroke="grey" stroke-width="2" points="981.44,-118.58 979.82,-108.1 974.56,-117.3 981.44,-118.58"/>
</g>
<!-- 8 -->
<g id="node9" class="node">
<title>8</title>
<path fill="none" stroke="#d6d856" stroke-width="2" stroke-dasharray="5,2" d="M1163,-180C1163,-180 1075,-180 1075,-180 1069,-180 1063,-174 1063,-168 1063,-168 1063,-156 1063,-156 1063,-150 1069,-144 1075,-144 1075,-144 1163,-144 1163,-144 1169,-144 1175,-150 1175,-156 1175,-156 1175,-168 1175,-168 1175,-174 1169,-180 1163,-180"/>
<text text-anchor="middle" x="1119" y="-165" font-family="sans" font-size="10.00">frequency_analysis</text>
<text text-anchor="middle" x="1119" y="-154" font-family="sans" font-size="10.00">atype: trinucleotide</text>
</g>
<!-- 8&#45;&gt;0 -->
<g id="edge8" class="edge">
<title>8&#45;&gt;0</title>
<path fill="none" stroke="grey" stroke-width="2" d="M1104.67,-143.67C1085.42,-120.74 1051.78,-82.03 1036,-72 996.53,-46.9 944.11,-32.69 909.27,-25.43"/>
<polygon fill="grey" stroke="grey" stroke-width="2" points="909.55,-21.92 899.06,-23.4 908.18,-28.78 909.55,-21.92"/>
</g>
<!-- 10 -->
<g id="node11" class="node">
<title>10</title>
<path fill="none" stroke="#59d856" stroke-width="2" stroke-dasharray="5,2" d="M1161.5,-108C1161.5,-108 1096.5,-108 1096.5,-108 1090.5,-108 1084.5,-102 1084.5,-96 1084.5,-96 1084.5,-84 1084.5,-84 1084.5,-78 1090.5,-72 1096.5,-72 1096.5,-72 1161.5,-72 1161.5,-72 1167.5,-72 1173.5,-78 1173.5,-84 1173.5,-84 1173.5,-96 1173.5,-96 1173.5,-102 1167.5,-108 1161.5,-108"/>
<text text-anchor="middle" x="1129" y="-87.5" font-family="sans" font-size="10.00">plot_frequency</text>
</g>
<!-- 8&#45;&gt;10 -->
<g id="edge18" class="edge">
<title>8&#45;&gt;10</title>
<path fill="none" stroke="grey" stroke-width="2" d="M1121.47,-143.7C1122.57,-135.98 1123.9,-126.71 1125.13,-118.11"/>
<polygon fill="grey" stroke="grey" stroke-width="2" points="1128.61,-118.5 1126.56,-108.1 1121.68,-117.51 1128.61,-118.5"/>
</g>
<!-- 9&#45;&gt;0 -->
<g id="edge9" class="edge">
<title>9&#45;&gt;0</title>
<path fill="none" stroke="grey" stroke-width="2" d="M955.85,-71.88C941.47,-62.81 923.62,-51.55 908.09,-41.76"/>
<polygon fill="grey" stroke="grey" stroke-width="2" points="909.58,-38.56 899.26,-36.19 905.85,-44.48 909.58,-38.56"/>
</g>
<!-- 10&#45;&gt;0 -->
<g id="edge10" class="edge">
<title>10&#45;&gt;0</title>
<path fill="none" stroke="grey" stroke-width="2" d="M1084.25,-76.01C1079.44,-74.64 1074.62,-73.28 1070,-72 1014.02,-56.44 948.9,-39.17 909.07,-28.7"/>
<polygon fill="grey" stroke="grey" stroke-width="2" points="909.83,-25.28 899.27,-26.12 908.05,-32.05 909.83,-25.28"/>
</g>
<!-- 11&#45;&gt;0 -->
<g id="edge11" class="edge">
<title>11&#45;&gt;0</title>
<path fill="none" stroke="grey" stroke-width="2" d="M801.99,-71.7C813.81,-62.8 828.39,-51.82 841.18,-42.2"/>
<polygon fill="grey" stroke="grey" stroke-width="2" points="843.39,-44.91 849.28,-36.1 839.18,-39.32 843.39,-44.91"/>
</g>
</g>
</svg>
